<svg width="9" height="6" viewBox="0 0 9 6" fill="none" xmlns="http://www.w3.org/2000/svg">
<path fill-rule="evenodd" clip-rule="evenodd" d="M3.95847 0.195191C4.08349 0.0702104 4.25303 0 4.42981 0C4.60658 0 4.77612 0.0702104 4.90114 0.195191L8.67247 3.96652C8.79391 4.09226 8.86111 4.26066 8.85959 4.43546C8.85807 4.61026 8.78796 4.77746 8.66435 4.90107C8.54075 5.02468 8.37354 5.09479 8.19874 5.09631C8.02394 5.09783 7.85554 5.03063 7.72981 4.90919L4.42981 1.60919L1.12981 4.90919C1.00407 5.03063 0.835671 5.09783 0.660874 5.09631C0.486076 5.09479 0.318867 5.02468 0.195262 4.90107C0.0716566 4.77746 0.00154415 4.61026 2.52018e-05 4.43546C-0.00149374 4.26066 0.0657025 4.09226 0.187141 3.96652L3.95847 0.195191Z" fill="#0E0E12"/>
</svg>
